<svg xmlns="http://www.w3.org/2000/svg" width="20.646" height="23.074" viewBox="0 0 20.646 23.074">
  <g id="account-white" transform="translate(0.85 0.85)">
    <path id="Path_1215" data-name="Path 1215" d="M15.562,112.156l-1.82,0-1.646,0H11.02l-4.879,0q-2.274,0-4.547,0a5.7,5.7,0,0,1-.791-.059,1.771,1.771,0,0,1-1.645-2,10.138,10.138,0,0,1,1.583-4.547A10.45,10.45,0,0,1,5.5,101.362a1.783,1.783,0,0,1,.713-.14,1.9,1.9,0,0,1,.8.168,5.753,5.753,0,0,0,2.449.586,5.44,5.44,0,0,0,2.414-.594,1.738,1.738,0,0,1,1.616-.01,11.02,11.02,0,0,1,6.243,8.242,2.1,2.1,0,0,1-.328,1.808,2.382,2.382,0,0,1-1.949.728C16.891,112.154,16.271,112.156,15.562,112.156ZM11.02,110.45H12.1l1.649,0,1.817,0c.716,0,1.314,0,1.882-.006a1.315,1.315,0,0,0,.641-.1.944.944,0,0,0-.02-.405,9.283,9.283,0,0,0-5.311-7.038.427.427,0,0,0-.061-.025.426.426,0,0,0-.066.027,7.123,7.123,0,0,1-3.166.769,7.433,7.433,0,0,1-3.167-.745.318.318,0,0,0-.081-.01.284.284,0,0,0-.043,0,8.779,8.779,0,0,0-3.98,3.509,8.487,8.487,0,0,0-1.337,3.793.551.551,0,0,0,0,.134.664.664,0,0,0,.188.049,4,4,0,0,0,.554.042q2.272,0,4.544,0Z" transform="translate(0 -89.932)" fill="#fff"/>
    <path id="Path_1216" data-name="Path 1216" d="M47.96,10.805h-.007A5.827,5.827,0,0,1,47.94-.849h.017a5.77,5.77,0,0,1,4.09,1.71,5.815,5.815,0,0,1-4.087,9.944Zm0-9.954h-.012A4.148,4.148,0,0,0,43.816,5a4.082,4.082,0,0,0,4.138,4.109h0A4.133,4.133,0,0,0,52.08,4.959,4.191,4.191,0,0,0,47.958.851Z" transform="translate(-38.499 -0.001)" fill="#fff"/>
  </g>
</svg>
