<svg xmlns="http://www.w3.org/2000/svg" width="26.031" height="23.088" viewBox="0 0 26.031 23.088">
  <g id="cart-white" transform="translate(0.25 0.252)">
    <path id="Path_1212" data-name="Path 1212" d="M25.53,2.977c-.017-.34-.27-.516-.716-.516H6.446c-.076,0-.153-.006-.228,0-.149.014-.215-.038-.243-.2-.1-.561-.211-1.119-.323-1.677C5.563.14,5.4.009,4.957.008,3.578.008,2.2.02.821,0A.763.763,0,0,0,0,.458V.629a.726.726,0,0,0,.8.491c1.188-.012,2.377,0,3.565-.009.2,0,.286.052.322.255.141.794.3,1.585.45,2.377Q6.416,10.425,7.7,17.107c.107.557.244.671.8.671H21.642c.5,0,.771-.2.767-.56s-.272-.55-.777-.55H8.732l-.441-2.336H22.548c.585,0,.715-.109.83-.67q1.049-5.146,2.1-10.291a1.618,1.618,0,0,0,.053-.393m-1.5,1.946q-.824,4.029-1.643,8.058c-.038.187-.1.25-.294.25q-6.83-.007-13.659,0c-.18,0-.246-.062-.281-.233Q7.221,8.425,6.284,3.853c-.017-.081-.018-.165-.028-.267H24.3c-.092.456-.18.9-.27,1.337" transform="translate(0 -0.001)" fill="#fff"/>
    <path id="Path_1212_-_Outline" data-name="Path 1212 - Outline" d="M15.068,18.028H8.494c-.67,0-.914-.2-1.042-.874Q6.368,11.5,5.285,5.851l-.395-2.06q-.058-.3-.116-.6C4.662,2.606,4.545,2,4.44,1.41a.355.355,0,0,0-.011-.046.421.421,0,0,0-.057,0H4.366c-.412,0-.817,0-1.125,0H2.208c-.415,0-.906,0-1.406.006H.78A.958.958,0,0,1-.236.712L-.25.672V.406L-.229.358A1,1,0,0,1,.793-.249H.824c.539.007,1.108.011,1.844.011.717,0,1.433,0,2.15,0h.138A.826.826,0,0,1,5.9.539l.044.218c.1.475.194.967.278,1.454.047,0,.1,0,.161,0H24.814c.582,0,.943.282.966.754a1.587,1.587,0,0,1-.048.406l-.01.05q-.6,2.933-1.2,5.865l-.9,4.426c-.139.683-.37.87-1.075.87H8.593l.346,1.836H21.632c.946,0,1.025.611,1.027.8a.74.74,0,0,1-.208.542,1.1,1.1,0,0,1-.81.27ZM4.372.861a.506.506,0,0,1,.56.461c.1.59.221,1.19.333,1.77q.058.3.116.6l.395,2.06q1.083,5.652,2.166,11.3c.084.438.12.468.551.468H21.642a.662.662,0,0,0,.454-.122.237.237,0,0,0,.063-.186c0-.091,0-.3-.527-.3H8.525L7.99,14.082H22.548c.461,0,.494-.026.585-.47l.9-4.426q.6-2.933,1.2-5.865l.011-.052a1.182,1.182,0,0,0,.037-.279c0-.083-.014-.279-.466-.279H6.446l-.143,0-.061,0c-.024,0-.046,0-.068,0a.43.43,0,0,1-.445-.407c-.084-.484-.182-.976-.278-1.452L5.408.636C5.342.308,5.283.259,4.956.258H4.818c-.717,0-1.433,0-2.15,0C1.93.261,1.359.258.818.251H.793C.5.251.349.321.25.514v.07C.322.762.445.87.78.87H.8c.5-.005,1-.006,1.411-.006H3.242c.306,0,.711,0,1.121,0Zm4.059,12.62a.483.483,0,0,1-.526-.433c-.422-2.078-.854-4.19-1.271-6.232L6.039,3.9a1.576,1.576,0,0,1-.024-.2c0-.028,0-.058-.007-.09L5.98,3.336H24.6l-.147.729c-.061.306-.122.607-.183.908L23.9,6.793c-.418,2.044-.851,4.158-1.271,6.238a.492.492,0,0,1-.538.45q-3.385,0-6.768,0C13.02,13.478,10.7,13.479,8.431,13.482Zm-.029-.5H8.43c2.271,0,4.59,0,6.893,0q3.383,0,6.767,0h.037a.488.488,0,0,0,.012-.048c.42-2.081.853-4.195,1.271-6.239l.372-1.82c.061-.3.122-.6.183-.907l.026-.131H6.535l.588,2.88c.418,2.043.849,4.155,1.271,6.233C8.4,12.962,8.4,12.973,8.4,12.981Z" transform="translate(0 -0.001)" fill="#fff"/>
    <path id="Path_1213" data-name="Path 1213" d="M168.336,338.39a1.615,1.615,0,0,0-.54,3.137c.077.029.151.067.227.1h.628c.075-.034.149-.073.227-.1a1.615,1.615,0,0,0-.541-3.137" transform="translate(-157.183 -319.042)" fill="#fff"/>
    <path id="Path_1213_-_Outline" data-name="Path 1213 - Outline" d="M168.7,341.878h-.735l-.049-.022-.077-.035c-.047-.022-.092-.043-.135-.059a1.866,1.866,0,1,1,1.254,0c-.043.016-.089.037-.137.06l-.074.034Zm-.627-.5h.518l.018-.008c.056-.026.113-.054.177-.077a1.371,1.371,0,0,0,.9-1.475,1.367,1.367,0,0,0-2.707,0,1.373,1.373,0,0,0,.9,1.476c.063.023.12.05.175.076Z" transform="translate(-157.183 -319.042)" fill="#fff"/>
    <path id="Path_1214" data-name="Path 1214" d="M327.508,338.394a1.617,1.617,0,0,0-.515,3.148c.08.027.157.06.236.09h.57c.077-.031.153-.065.231-.093a1.617,1.617,0,0,0-.523-3.144" transform="translate(-307.262 -319.046)" fill="#fff"/>
    <path id="Path_1214_-_Outline" data-name="Path 1214 - Outline" d="M327.849,341.882h-.665l-.043-.016-.077-.03c-.052-.021-.1-.04-.151-.057a1.867,1.867,0,0,1,.592-3.635,1.867,1.867,0,0,1,.611,3.63c-.047.017-.1.037-.146.058l-.075.031Zm-.573-.5h.474l.025-.011c.055-.023.111-.047.172-.068a1.365,1.365,0,1,0-1.781-1.539,1.349,1.349,0,0,0,.908,1.542c.059.02.116.043.171.064Z" transform="translate(-307.262 -319.046)" fill="#fff"/>
  </g>
</svg>
