<svg width="13" height="14" viewBox="0 0 13 14" fill="none" xmlns="http://www.w3.org/2000/svg">
<g clip-path="url(#clip0_22845_25525)">
<path d="M1.57878 11.1582C1.52967 11.138 1.50511 11.0802 1.52678 11.0311L2.31833 9.11866C2.36889 8.99444 2.36889 8.85577 2.31833 8.73155C2.26778 8.60733 2.16811 8.5091 2.04533 8.45855L0.13289 7.66555C0.0837784 7.64533 0.0592229 7.58755 0.0808896 7.53844C0.101112 7.48933 0.15889 7.46477 0.208001 7.48644L2.19556 8.30977C2.31978 8.36177 2.418 8.45999 2.46856 8.58277L2.53067 8.73155C2.58267 8.85577 2.58267 8.99444 2.53067 9.11866L1.70733 11.1062C1.68711 11.1553 1.62933 11.1799 1.58022 11.1582" fill="white"/>
<path d="M1.57878 11.1582C1.52967 11.138 1.50511 11.0802 1.52678 11.0311L2.31833 9.11866C2.36889 8.99444 2.36889 8.85577 2.31833 8.73155C2.26778 8.60733 2.16811 8.5091 2.04533 8.45855L0.13289 7.66555C0.0837784 7.64533 0.0592229 7.58755 0.0808896 7.53844C0.101112 7.48933 0.15889 7.46477 0.208001 7.48644L2.19556 8.30977C2.31978 8.36177 2.418 8.45999 2.46856 8.58277L2.53067 8.73155C2.58267 8.85577 2.58267 8.99444 2.53067 9.11866L1.70733 11.1062C1.68711 11.1553 1.62933 11.1799 1.58022 11.1582H1.57878Z" stroke="white" stroke-miterlimit="10"/>
<path d="M12.9206 6.46106C12.9408 6.41194 12.9177 6.35417 12.8685 6.33394L10.9561 5.54095C10.8319 5.49039 10.7337 5.39217 10.6831 5.26794C10.6326 5.14372 10.6326 5.00506 10.6831 4.88083L11.4761 2.96839C11.4963 2.91928 11.4732 2.8615 11.4241 2.84128C11.375 2.82106 11.3172 2.84417 11.297 2.89472L10.4737 4.88228C10.4231 5.0065 10.4231 5.14517 10.4737 5.26939L10.5358 5.41817C10.5863 5.54239 10.686 5.64061 10.8088 5.69117L12.7963 6.5145C12.8454 6.53472 12.9032 6.51161 12.9234 6.4625" fill="white"/>
<path d="M12.9206 6.46106C12.9408 6.41194 12.9177 6.35417 12.8685 6.33394L10.9561 5.54094C10.8319 5.49039 10.7337 5.39217 10.6831 5.26794C10.6326 5.14372 10.6326 5.00506 10.6831 4.88083L11.4761 2.96839C11.4963 2.91928 11.4732 2.8615 11.4241 2.84128C11.375 2.82106 11.3172 2.84417 11.297 2.89472L10.4737 4.88228C10.4231 5.0065 10.4231 5.14517 10.4737 5.26939L10.5358 5.41817C10.5863 5.54239 10.686 5.64061 10.8088 5.69117L12.7963 6.5145C12.8454 6.53472 12.9032 6.51161 12.9234 6.4625L12.9206 6.46106Z" stroke="white" stroke-miterlimit="10"/>
<path d="M2.34144 2.07856C2.36166 2.02945 2.41944 2.0049 2.46855 2.02656L4.381 2.81956C4.50522 2.87156 4.64388 2.87156 4.76811 2.81956C4.89233 2.76901 4.99055 2.66934 5.04111 2.54656L5.83411 0.632676C5.85433 0.583565 5.91211 0.559009 5.96122 0.580676C6.01033 0.600898 6.03488 0.658676 6.01322 0.707787L5.18989 2.69534C5.13789 2.81956 5.03966 2.91779 4.91689 2.96834L4.76811 3.03045C4.64388 3.08101 4.50522 3.08101 4.381 3.03045L2.39344 2.20712C2.34433 2.1869 2.31977 2.12912 2.34144 2.08001" fill="white"/>
<path d="M2.34144 2.07856C2.36166 2.02945 2.41944 2.0049 2.46855 2.02656L4.381 2.81956C4.50522 2.87156 4.64388 2.87156 4.76811 2.81956C4.89233 2.76901 4.99055 2.66934 5.04111 2.54656L5.83411 0.632676C5.85433 0.583565 5.91211 0.559009 5.96122 0.580676C6.01033 0.600898 6.03489 0.658676 6.01322 0.707787L5.18989 2.69534C5.13789 2.81956 5.03966 2.91779 4.91689 2.96834L4.76811 3.03045C4.64388 3.08101 4.50522 3.08101 4.381 3.03045L2.39344 2.20712C2.34433 2.1869 2.31977 2.12912 2.34144 2.08001V2.07856Z" stroke="white" stroke-miterlimit="10"/>
<path d="M7.03877 13.4204C7.08788 13.4406 7.14566 13.4175 7.16588 13.3684L7.95888 11.4559C8.01088 11.3317 8.1091 11.2335 8.23188 11.1829C8.35611 11.1324 8.49477 11.1324 8.61755 11.1829L10.53 11.9759C10.5791 11.9961 10.6369 11.973 10.6571 11.9239C10.6773 11.8734 10.6542 11.817 10.6037 11.7968L8.61611 10.9735C8.49188 10.9229 8.35322 10.9229 8.23044 10.9735L8.08166 11.0356C7.95744 11.0861 7.85922 11.1858 7.80866 11.3086L6.98533 13.2961C6.9651 13.3452 6.98822 13.403 7.03733 13.4232" fill="white"/>
<path d="M7.03877 13.4204C7.08788 13.4406 7.14566 13.4175 7.16588 13.3684L7.95888 11.4559C8.01088 11.3317 8.10911 11.2335 8.23188 11.1829C8.35611 11.1324 8.49477 11.1324 8.61755 11.1829L10.53 11.9759C10.5791 11.9961 10.6369 11.973 10.6571 11.9239C10.6773 11.8734 10.6542 11.817 10.6037 11.7968L8.61611 10.9735C8.49188 10.9229 8.35322 10.9229 8.23044 10.9735L8.08166 11.0356C7.95744 11.0861 7.85922 11.1858 7.80866 11.3086L6.98533 13.2961C6.9651 13.3452 6.98822 13.403 7.03733 13.4232L7.03877 13.4204Z" stroke="white" stroke-miterlimit="10"/>
<path d="M5.96122 13.4204C5.91211 13.4406 5.85433 13.4175 5.83411 13.3684L5.04111 11.4559C4.98911 11.3317 4.89089 11.2335 4.76811 11.1829C4.64389 11.1324 4.50522 11.1324 4.38244 11.1829L2.47 11.9759C2.42089 11.9961 2.36311 11.973 2.34289 11.9239C2.32267 11.8734 2.34578 11.817 2.39633 11.7968L4.38389 10.9735C4.50811 10.9229 4.64678 10.9229 4.76955 10.9735L4.91833 11.0356C5.04255 11.0861 5.14078 11.1858 5.19133 11.3086L6.01467 13.2961C6.03489 13.3452 6.01178 13.403 5.96267 13.4232" fill="white"/>
<path d="M5.96122 13.4204C5.91211 13.4406 5.85433 13.4175 5.83411 13.3684L5.04111 11.4559C4.98911 11.3317 4.89089 11.2335 4.76811 11.1829C4.64389 11.1324 4.50522 11.1324 4.38244 11.1829L2.47 11.9759C2.42089 11.9961 2.36311 11.973 2.34289 11.9239C2.32267 11.8734 2.34578 11.817 2.39633 11.7968L4.38389 10.9735C4.50811 10.9229 4.64678 10.9229 4.76955 10.9735L4.91833 11.0356C5.04255 11.0861 5.14078 11.1858 5.19133 11.3086L6.01467 13.2961C6.03489 13.3452 6.01178 13.403 5.96267 13.4232L5.96122 13.4204Z" stroke="white" stroke-miterlimit="10"/>
<path d="M10.6586 2.07856C10.6383 2.02945 10.5806 2.0049 10.5314 2.02656L8.619 2.81956C8.49477 2.87156 8.35611 2.87156 8.23188 2.81956C8.10766 2.76901 8.00944 2.66934 7.95888 2.54656L7.16588 0.632676C7.14566 0.583565 7.08788 0.559009 7.03877 0.580676C6.98966 0.600898 6.96511 0.658676 6.98677 0.707787L7.81011 2.69534C7.86211 2.81956 7.96033 2.91779 8.08311 2.96834L8.23188 3.03045C8.35611 3.08101 8.49477 3.08101 8.619 3.03045L10.6066 2.20712C10.6557 2.1869 10.6802 2.12912 10.6586 2.08001" fill="white"/>
<path d="M10.6586 2.07856C10.6383 2.02945 10.5806 2.0049 10.5314 2.02656L8.619 2.81956C8.49477 2.87156 8.35611 2.87156 8.23188 2.81956C8.10766 2.76901 8.00944 2.66934 7.95888 2.54656L7.16588 0.632676C7.14566 0.583565 7.08788 0.559009 7.03877 0.580676C6.98966 0.600898 6.96511 0.658676 6.98677 0.707787L7.81011 2.69534C7.86211 2.81956 7.96033 2.91779 8.08311 2.96834L8.23188 3.03045C8.35611 3.08101 8.49477 3.08101 8.619 3.03045L10.6066 2.20712C10.6557 2.1869 10.6802 2.12912 10.6586 2.08001V2.07856Z" stroke="white" stroke-miterlimit="10"/>
<path d="M0.0794433 6.46106C0.0592211 6.41194 0.0823322 6.35417 0.131443 6.33394L2.04389 5.54095C2.16811 5.49039 2.26633 5.39217 2.31689 5.26794C2.36744 5.14372 2.36744 5.00506 2.31689 4.88083L1.52389 2.96839C1.50367 2.91928 1.52678 2.8615 1.57589 2.84128C1.625 2.82106 1.68278 2.84417 1.703 2.89472L2.52633 4.88228C2.57689 5.0065 2.57689 5.14517 2.52633 5.26939L2.46422 5.41817C2.41367 5.54239 2.314 5.64061 2.19122 5.69117L0.203665 6.5145C0.154554 6.53472 0.0967766 6.51161 0.0765544 6.4625" fill="white"/>
<path d="M0.0794433 6.46106C0.0592211 6.41194 0.0823322 6.35417 0.131443 6.33394L2.04389 5.54094C2.16811 5.49039 2.26633 5.39217 2.31689 5.26794C2.36744 5.14372 2.36744 5.00506 2.31689 4.88083L1.52389 2.96839C1.50367 2.91928 1.52678 2.8615 1.57589 2.84128C1.625 2.82106 1.68278 2.84417 1.703 2.89472L2.52633 4.88228C2.57689 5.0065 2.57689 5.14517 2.52633 5.26939L2.46422 5.41817C2.41367 5.54239 2.314 5.64061 2.19122 5.69117L0.203665 6.5145C0.154554 6.53472 0.0967766 6.51161 0.0765544 6.4625L0.0794433 6.46106Z" stroke="white" stroke-miterlimit="10"/>
<path d="M11.4212 11.1582C11.4703 11.138 11.4949 11.0802 11.4732 11.0311L10.6817 9.11868C10.6311 8.99446 10.6311 8.85579 10.6817 8.73157C10.7322 8.60735 10.8319 8.50912 10.9547 8.45857L12.8671 7.66701C12.9162 7.64679 12.9408 7.58901 12.9191 7.5399C12.8989 7.49079 12.8411 7.46624 12.792 7.4879L10.8044 8.31124C10.6802 8.36324 10.582 8.46146 10.5314 8.58424L10.4693 8.73301C10.4173 8.85724 10.4173 8.9959 10.4693 9.12012L11.2927 11.1077C11.3129 11.1568 11.3707 11.1813 11.4198 11.1597" fill="white"/>
<path d="M11.4212 11.1582C11.4703 11.138 11.4949 11.0802 11.4732 11.0311L10.6817 9.11868C10.6311 8.99446 10.6311 8.85579 10.6817 8.73157C10.7322 8.60735 10.8319 8.50912 10.9547 8.45857L12.8671 7.66701C12.9162 7.64679 12.9408 7.58901 12.9191 7.5399C12.8989 7.49079 12.8411 7.46624 12.792 7.4879L10.8044 8.31124C10.6802 8.36324 10.582 8.46146 10.5314 8.58424L10.4693 8.73301C10.4173 8.85724 10.4173 8.9959 10.4693 9.12012L11.2927 11.1077C11.3129 11.1568 11.3707 11.1813 11.4198 11.1597L11.4212 11.1582Z" stroke="white" stroke-miterlimit="10"/>
</g>
<defs>
<clipPath id="clip0_22845_25525">
<rect width="13" height="13" fill="white" transform="translate(0 0.5)"/>
</clipPath>
</defs>
</svg>
