<svg id="guarantee-icon" xmlns="http://www.w3.org/2000/svg" xmlns:xlink="http://www.w3.org/1999/xlink" width="47.481" height="58.707" viewBox="0 0 47.481 58.707">
  <defs>
    <clipPath id="clip-path">
      <rect id="Rectangle_1344" data-name="Rectangle 1344" width="47.481" height="58.707" transform="translate(0 0)" fill="none"/>
    </clipPath>
  </defs>
  <g id="Group_2008" data-name="Group 2008" clip-path="url(#clip-path)">
    <path id="Path_1306" data-name="Path 1306" d="M23.739,58.708a.5.5,0,0,1-.492-.417A36.508,36.508,0,0,0,10.37,35.511,32.468,32.468,0,0,0,.358,29.834a.5.5,0,0,1,.283-.959,32.8,32.8,0,0,1,10.325,5.833,36.119,36.119,0,0,1,7.914,8.957,39.67,39.67,0,0,1,5.352,14.461.5.5,0,0,1-.494.583Z" fill="#231f20"/>
    <path id="Path_1307" data-name="Path 1307" d="M23.742,58.708a.5.5,0,0,1-.494-.583A39.67,39.67,0,0,1,28.6,43.664a36.119,36.119,0,0,1,7.914-8.957A32.8,32.8,0,0,1,46.84,28.874a.5.5,0,0,1,.283.959,32.475,32.475,0,0,0-10.012,5.678,36.508,36.508,0,0,0-12.877,22.78A.5.5,0,0,1,23.742,58.708Z" fill="#231f20"/>
    <path id="Path_1308" data-name="Path 1308" d="M46.981,29.854a.5.5,0,0,1-.141-.021A32.8,32.8,0,0,1,36.515,24,36.119,36.119,0,0,1,28.6,15.044,39.67,39.67,0,0,1,23.248.583a.5.5,0,0,1,.986-.167A36.5,36.5,0,0,0,37.145,23.225a32.345,32.345,0,0,0,9.977,5.65.5.5,0,0,1-.141.98Z" fill="#231f20"/>
    <path id="Path_1309" data-name="Path 1309" d="M.5,29.854a.5.5,0,0,1-.141-.98h0A32.468,32.468,0,0,0,10.37,23.2,36.508,36.508,0,0,0,23.247.417a.5.5,0,1,1,.986.167,39.67,39.67,0,0,1-5.352,14.461A36.119,36.119,0,0,1,10.966,24,32.8,32.8,0,0,1,.641,29.834.5.5,0,0,1,.5,29.854Z" fill="#231f20"/>
  </g>
</svg>
