<?xml version="1.0" encoding="UTF-8"?>
<svg id="Layer_2" data-name="Layer 2" xmlns="http://www.w3.org/2000/svg" viewBox="0 0 36 31.36">
  <defs>
    <style>
      .cls-1 {
        fill: #212121;
        isolation: isolate;
      }
    </style>
  </defs>
  <g id="Layer_1-2" data-name="Layer 1">
    <path class="cls-1" d="M18.04,2.67c.66-.35,1.33-.73,2.03-1.06C22.76.33,25.57-.41,28.61.27c4.71,1.05,7.76,5.01,7.36,9.48-.18,2.03-.88,3.9-1.89,5.7-1.47,2.62-3.43,4.92-5.55,7.1-2.9,2.98-6.07,5.7-9.44,8.22-1.02.77-1.13.79-2.03.11-4.79-3.63-9.3-7.51-12.95-12.18-1.78-2.27-3.21-4.69-3.86-7.47C-.95,6.05,2.22,1.29,7.67.2c2.46-.49,4.83-.05,7.09.9,1.1.46,2.15,1.02,3.28,1.57h0ZM17.83,21.23c4.79-2.58,10.16-8.98,10.93-12.96-2.22-.6-4.3-1.89-6.8-.96-2.67.99-5.36.9-8.01-.03-2.52-.88-4.54.42-6.93,1.06,2.21,5.49,5.96,9.55,10.81,12.89h0ZM7.27,4.76c1.16.4,1.98.69,2.81.95.65.2,1.35.57,1.95.48,1.69-.26,3.35-.72,5.38-1.19-2.02-1.52-3.72-2.81-5.53-4.19-1.48,1.26-2.9,2.48-4.61,3.94h0ZM24.12.81c-1.83,1.4-3.52,2.69-5.32,4.06,3.39,1.37,6.51,1.86,9.74-.28-1.44-1.24-2.86-2.45-4.42-3.78ZM27.16,17.58c-1.73.56-3.2,1.03-4.66,1.53-.22.07-.49.29-.54.48-.3,1.15-.54,2.32-.85,3.72,2.18-.12,4.08-.23,6.05-.34v-5.39ZM8.89,22.99c1.99.1,3.9.19,6.01.3-.3-1.34-.54-2.43-.81-3.51-.05-.22-.22-.5-.42-.57-1.54-.55-3.07-1.14-4.78-1.53v5.32h0ZM2.55,15.17c1.97.58,3.7,1.08,5.66,1.66,0-1.41.03-2.57-.02-3.72-.01-.29-.26-.66-.52-.82-.86-.52-1.79-.96-2.81-1.5-.78,1.48-1.49,2.83-2.3,4.38ZM27.84,16.81c1.98-.58,3.71-1.09,5.6-1.65-.79-1.51-1.52-2.89-2.31-4.39-1.06.56-1.97,1.02-2.84,1.54-.22.13-.43.46-.44.71-.04,1.2-.02,2.4-.02,3.8ZM15.6,23.7c.75,2.1,1.49,4.14,2.22,6.18.13,0,.25,0,.38,0,.73-2.05,1.46-4.1,2.22-6.22-.86-.61-1.64-1.16-2.46-1.74-.83.62-1.56,1.17-2.37,1.78ZM34.37,5.58c-1.8-.2-3.25-.49-4.72-.27-.31,1.81-.17,3.33,1.7,4.45.95-1.31,1.89-2.62,3.02-4.18h0ZM4.65,9.8c1.94-1.23,2.02-2.77,1.64-4.51-1.52-.09-2.94,0-4.55.42,1.01,1.43,1.92,2.71,2.9,4.09h0ZM12.55,26.61c1.49,1.2,2.92,2.35,4.36,3.51.11-.07.22-.14.33-.21-.66-1.85-1.32-3.71-2.09-5.86-.96.94-1.72,1.69-2.59,2.55h0ZM23.56,26.53c-.91-.82-1.71-1.54-2.71-2.44-.76,2.13-1.42,3.98-2.08,5.83.1.07.21.13.31.2,1.44-1.16,2.88-2.32,4.47-3.59ZM35.14,11.31c.43-1.85.56-3.47-.38-5.32-1.08,1.49-2.02,2.79-3.08,4.27,1.28.39,2.31.7,3.46,1.06ZM10.94.93c-.06-.11-.13-.23-.19-.34-1.78-.15-3.51-.09-5.21.94.44.94.84,1.8,1.33,2.86,1.48-1.26,2.77-2.36,4.07-3.46h0ZM25.27.63c-.06.11-.12.21-.17.32,1.3,1.1,2.59,2.21,4.06,3.46.49-1.1.88-1.98,1.32-2.96-1.75-.85-3.43-1.11-5.21-.82ZM4.26,10.26c-.99-1.5-1.87-2.84-3-4.13-.87,1.63-.92,3.6-.16,5.13,1-.32,2.02-.63,3.16-1ZM27.22,13.75c-.12-.05-.24-.11-.36-.16-1.25,1.46-2.51,2.91-3.98,4.63,1.78-.24,3.03-.78,4.34-1.27v-3.2ZM8.79,13.41c0,1.23-.01,2.18.01,3.13,0,.17.12.43.27.49,1.2.5,2.41.96,3.77,1.07-1.03-1.42-2.13-2.7-3.24-3.98-.16-.18-.36-.32-.81-.7ZM31.19,1.79c-.78.83-1.08,1.76-1.34,2.87,1.47.11,2.84.22,4.41.34-.68-1.53-1.78-2.38-3.07-3.2ZM1.71,5.02c1.65-.14,2.99-.25,4.57-.39-.44-1.03-.82-1.91-1.25-2.91-1.45.81-2.54,1.71-3.32,3.3ZM27.8,17.66c-.02,1.7-.13,3.05.04,4.4.12.03.23.06.35.09.81-.91,1.62-1.81,2.53-2.82-1-.57-1.79-1.02-2.93-1.67h0ZM8.18,17.67c-1.12.65-1.93,1.12-2.82,1.63.85,1.11,1.56,2.11,2.82,2.95v-4.59ZM14.4,23.88c-2.45-.33-3.84-.33-4.84,0,.85.76,1.66,1.48,2.26,2.02.91-.71,1.65-1.29,2.57-2.02ZM21.67,23.78c.87.92,1.54,1.63,2.3,2.44.83-.99,1.89-1.48,2.41-2.66-1.63.08-3.07.15-4.72.22ZM28.63,17.13c-.01.11-.03.23-.04.34.81.45,1.62.9,2.45,1.37.8-.94,1.55-1.71,1.94-2.99-1.61.47-2.98.88-4.35,1.28ZM7.4,17.48c-.03-.13-.07-.25-.1-.38-1.38-.34-2.68-.95-4.49-1.12.8,1.1,1.43,1.96,2.12,2.91.91-.52,1.69-.97,2.47-1.41ZM33.8,14.65c.63-1.14,1.17-1.89,1-2.93-.9-.23-1.76-.45-2.95-.76.72,1.37,1.27,2.4,1.95,3.69ZM3.96,11.33c-.1-.1-.19-.2-.29-.3-.86.26-1.72.52-2.74.82.39.94.72,1.74,1.04,2.54.12,0,.24,0,.36-.01.54-1.02,1.07-2.03,1.61-3.05h0ZM17.65,7.59v-2.13c-1.41.35-2.63.65-3.86.95,0,.11.02.22.03.33,1.24.28,2.48.55,3.83.85ZM7.05,7.78c1.3-.41,2.34-.74,3.67-1.17-1.36-.61-2.4-1.08-3.67-1.15v2.32ZM28.92,5.28c-1.28.42-2.34.77-3.39,1.13.01.1.02.21.03.31,1.07.32,2.14.65,3.36,1.01v-2.45ZM22.49,6.68c-1.41-.7-2.68-.86-4.06-1.12v2.02c1.36-.3,2.58-.57,4.06-.9h0ZM21.2,20.12c-.09-.05-.19-.11-.28-.16-.75.52-1.5,1.04-2.4,1.66.74.52,1.29.92,2.04,1.45.24-1.14.44-2.04.63-2.94h0ZM17.49,21.59c-.89-.6-1.51-1.27-2.74-1.53.25,1.04.46,1.9.72,3.02.77-.57,1.32-.97,2.02-1.49h0ZM14.19,1.53c1.13,1.4,2.5,2.36,3.64,2.65-.41-1.97-2.32-1.96-3.64-2.65ZM18.5,4.25c1.91-1.13,2.82-1.88,3.34-2.73-2.64.76-3.49,1.42-3.34,2.73ZM5.21,10.32c.84.46,1.52.82,2.2,1.19.09-.08.18-.15.26-.23-.33-.78-.66-1.56-1.08-2.57-.53.61-.9,1.04-1.39,1.6h0ZM28.33,11.27l.33.23c.67-.39,1.34-.78,2.12-1.24-.49-.54-.85-.93-1.38-1.51-.42.99-.74,1.76-1.07,2.52h0Z"/>
  </g>
</svg>