<svg id="Group_1617" data-name="Group 1617" xmlns="http://www.w3.org/2000/svg" xmlns:xlink="http://www.w3.org/1999/xlink" width="15" height="15" viewBox="0 0 15 15">
  <defs>
    <clipPath id="clip-path">
      <rect id="Rectangle_1107" data-name="Rectangle 1107" width="15" height="15" transform="translate(0 0)" fill="#1a1b18"/>
    </clipPath>
  </defs>
  <g id="Group_1616" data-name="Group 1616" transform="translate(0 0)" clip-path="url(#clip-path)">
    <path id="Path_1200" data-name="Path 1200" d="M0,3.519v7.962A3.519,3.519,0,0,0,3.519,15h7.962A3.519,3.519,0,0,0,15,11.481V3.519A3.519,3.519,0,0,0,11.481,0H3.519A3.519,3.519,0,0,0,0,3.519m1.379.3A2.445,2.445,0,0,1,3.824,1.378h7.353a2.445,2.445,0,0,1,2.445,2.445v7.353a2.445,2.445,0,0,1-2.445,2.445H3.824a2.445,2.445,0,0,1-2.445-2.445Zm4,3.677A2.118,2.118,0,1,0,7.5,5.382,2.121,2.121,0,0,0,5.382,7.5m-1.247,0A3.365,3.365,0,1,1,7.5,10.865,3.369,3.369,0,0,1,4.135,7.5m7.223-4.663a.875.875,0,1,1-.875.875.875.875,0,0,1,.875-.875" transform="translate(0 0)" fill="#1a1b18" fill-rule="evenodd"/>
  </g>
</svg>
