<?xml version="1.0" encoding="UTF-8"?>
<svg id="Layer_2" data-name="Layer 2" xmlns="http://www.w3.org/2000/svg" viewBox="0 0 1888 251.14">
  <defs>
    <style>
      .cls-1 {
        fill: #fff;
        stroke-width: 0px;
      }
    </style>
  </defs>
  <g id="Capa_1" data-name="Capa 1">
    <path class="cls-1" d="M192.18,124.51c0,78.17-53.76,124.51-120.27,124.51H0V0h71.91c66.51,0,120.27,46.34,120.27,124.51ZM68.38,234.87c49.52,0,89.84-26.3,89.84-110.36S117.9,14.15,68.38,14.15H27.13v220.72h41.25Z"/>
    <path class="cls-1" d="M335.88,249.02h-29.12l2-123.45L306.76,0h29.12l-2,125.57,2,123.45Z"/>
    <path class="cls-1" d="M752.88,249.02h-29.12l2-123.45L723.76,0h29.12l-2,125.57,2,123.45Z"/>
    <path class="cls-1" d="M518.67,12.15v103.51l82.51-2v18.15l-82.51-2,2,119.21h-35.14V0h140.23v12.15h-107.09Z"/>
    <path class="cls-1" d="M1089.28,0l-2,251.14h-13.08L905.47,18.04l6,231h-28.63L884.84.04h45.39l140.43,193.48L1064.66.04l24.62-.04Z"/>
    <path class="cls-1" d="M1248.17,12.15v103.51l72.51-2v18.15l-72.51-2v107.06h115.09v12.15h-148.26V0h148.23v12.15h-115.06Z"/>
    <path class="cls-1" d="M1626.33,250.02h-41.83l-11.33-99c-2.13-11.68-15.92-21.94-31.84-21.94h-48.1v121h-31.13V1.08h72.16c46.34,0,83.83,21.58,83.83,60.49,0,33.6-23,55.17-60.48,60.48,27.94,1.77,46,20.16,49.87,44.21l18.85,83.76ZM1532.14,114.9c37.14,0,53.41-27.24,53.41-53.41s-16.27-46.34-53.41-46.34h-38.91v99.75h38.91Z"/>
    <path class="cls-1" d="M1814,157.57l4,91.45h-43.76l6-90.91L1709.84,0h34.32l62.61,141.49L1868.08,0h19.92l-74,157.57Z"/>
  </g>
</svg>