<?xml version="1.0" encoding="UTF-8"?>
<svg id="Logos" xmlns="http://www.w3.org/2000/svg" width="2052.42" height="285.39" viewBox="0 0 2052.42 285.39">
  <defs>
    <style>
      .cls-1 {
        fill: #fff;
      }
    </style>
  </defs>
  <g>
    <path class="cls-1" d="M217.95,141.63c0,78.17-53.76,124.51-120.27,124.51H25.76V17.12h71.91c66.5,0,120.27,46.34,120.27,124.51ZM94.15,251.99c49.52,0,89.84-26.3,89.84-110.36S143.67,31.27,94.15,31.27h-41.25v220.72h41.25Z"/>
    <path class="cls-1" d="M361.65,266.14h-29.13l2-123.45-2-125.57h29.13l-2,125.57,2,123.45Z"/>
    <path class="cls-1" d="M778.65,266.14h-29.13l2-123.45-2-125.57h29.13l-2,125.57,2,123.45Z"/>
    <path class="cls-1" d="M544.43,29.27v103.52l82.51-2v18.15l-82.51-2,2,119.2h-35.13V17.12h140.22v12.15h-107.09Z"/>
    <path class="cls-1" d="M1115.05,17.12l-2,251.14h-13.08l-168.72-233.1,6,230.98h-28.63l2-249.02h45.39l140.43,193.49-6-193.49h24.62Z"/>
    <path class="cls-1" d="M1273.93,29.27v103.52l72.51-2v18.15l-72.51-2v107.05h115.09v12.15h-148.22V17.12h148.22v12.15h-115.09Z"/>
    <path class="cls-1" d="M1652.1,267.14h-41.83l-11.34-99.04c-2.12-11.68-15.91-21.93-31.83-21.93h-48.1v120.97h-31.13V18.12h72.17c46.33,0,83.83,21.58,83.83,60.49,0,33.6-22.99,55.18-60.48,60.49,27.94,1.77,45.98,20.16,49.87,44.21l18.85,83.83ZM1557.91,132.02c37.14,0,53.4-27.24,53.4-53.41s-16.26-46.34-53.4-46.34h-38.91v99.75h38.91Z"/>
    <path class="cls-1" d="M1839.76,174.69l4,91.45h-43.76l6-90.9-70.4-158.11h34.31l62.61,141.49,61.31-141.49h19.92l-74,157.57Z"/>
  </g>
  <g>
    <path class="cls-1" d="M1937.63,18.25c0-.31.1-.56.29-.76.19-.19.49-.29.88-.29h33.46c.43,0,.73.1.9.29.17.2.26.45.26.76v5.42c0,.58-.35.87-1.05.87h-10.9c-.43,0-.64.19-.64.58v34.22c0,.74-.33,1.11-.99,1.11h-8.34c-.58,0-.87-.33-.87-.99V25.31c0-.5-.21-.76-.64-.76h-11.25c-.74,0-1.11-.29-1.11-.87v-5.42Z"/>
    <path class="cls-1" d="M1979.49,59.12V18.31c0-.74.33-1.11.99-1.11h12.07c.43,0,.74.06.93.18.19.12.35.35.47.7l8.8,24.43c.12.35.25.52.41.5.16-.02.29-.18.41-.5l8.4-23.96c.23-.89.66-1.34,1.28-1.34h12.53c.58,0,.88.35.88,1.05v40.81c0,.93-.49,1.4-1.46,1.4h-7.52c-.47,0-.79-.1-.96-.29-.17-.19-.26-.49-.26-.87v-29.03c0-.27-.07-.4-.21-.38-.14.02-.24.17-.32.44l-10.2,29.21c-.23.62-.64.93-1.22.93h-4.84c-.66,0-1.09-.31-1.28-.93l-10.09-28.8c-.12-.35-.24-.5-.38-.47-.14.04-.2.21-.2.52v28.63c0,.39-.07.66-.2.82-.14.16-.42.23-.85.23h-5.95c-.82,0-1.22-.45-1.22-1.34Z"/>
  </g>
</svg>