<svg xmlns="http://www.w3.org/2000/svg" width="161.057" height="18.746" viewBox="0 0 161.057 18.746">
  <g id="logo-white" transform="translate(2.2 -62.787)">
    <path id="Path_1174" data-name="Path 1174" d="M10.181,78.858h-7.4l-1.02,2.356H-2.2L5.889,62.8H7.119l8.059,18.414H11.2ZM6.489,69.7,4.073,75.811H8.89Z" transform="translate(0 -0.011)" fill="#fff"/>
    <path id="Path_1175" data-name="Path 1175" d="M174.9,65h5.913c5.733-.06,9.95,3.647,9.86,8.989.075,5.237-4.142,9.184-9.86,9.094H174.9Zm5.9,14.737c3.647,0,6.078-2.281,6.078-5.748,0-3.512-2.386-5.643-6.078-5.643h-2.191V79.748H180.8Z" transform="translate(-150.522 -1.876)" fill="#fff"/>
    <path id="Path_1176" data-name="Path 1176" d="M348.482,62.789a9.367,9.367,0,1,1-9.59,9.364A9.469,9.469,0,0,1,348.482,62.789Zm.03,3.422a5.944,5.944,0,1,0,5.808,5.943A5.673,5.673,0,0,0,348.512,66.211Z" transform="translate(-289.903 0)" fill="#fff"/>
    <path id="Path_1177" data-name="Path 1177" d="M543.89,83.084l-4.682-6.378h-2.716v6.378H532.8V65h6.8c3.782,0,6.528,2.356,6.528,5.838a5.576,5.576,0,0,1-3.182,5.147l5.117,7.1Zm-7.4-9.65h3.091a2.486,2.486,0,0,0,2.746-2.6,2.512,2.512,0,0,0-2.746-2.581h-3.091Z" transform="translate(-454.712 -1.881)" fill="#fff"/>
    <path id="Path_1178" data-name="Path 1178" d="M694.6,65h3.692V83.084H694.6Z" transform="translate(-592.23 -1.881)" fill="#fff"/>
    <path id="Path_1179" data-name="Path 1179" d="M807.182,63.13V81.544h-1.231l-10.46-11.18v10.85H791.8V62.8H793l10.49,11.12V63.13Z" transform="translate(-674.843 -0.011)" fill="#fff"/>
    <path id="Path_1180" data-name="Path 1180" d="M967.6,78.858h-7.4l-1.02,2.356H955.2L963.289,62.8h1.231l8.059,18.414H968.6ZM963.9,69.7l-2.416,6.108h4.817Z" transform="translate(-813.722 -0.011)" fill="#fff"/>
  </g>
</svg>
