<?xml version="1.0" encoding="UTF-8"?>
<svg id="Layer_2" data-name="Layer 2" xmlns="http://www.w3.org/2000/svg" viewBox="0 0 24 38.44">
  <defs>
    <style>
      .cls-1 {
        fill: #212121;
        isolation: isolate;
      }
    </style>
  </defs>
  <g id="Layer_1-2" data-name="Layer 1">
    <path class="cls-1" d="M0,25.78c.09-3.54.98-6.91,2.25-10.18C4.39,10.07,7.54,5.16,11.25.6c.64-.78.86-.8,1.45-.07,4.74,5.84,8.6,12.18,10.5,19.58.65,2.53.98,5.09.68,7.73-.71,6.26-6.41,11.01-12.63,10.58C5.09,37.99-.19,32.81,0,25.78h0ZM11.94,11.23c-.82,1.45-1.66,2.63-2.18,3.94-1,2.54-1.82,5.15-2.68,7.74-.15.45-.24.97-.2,1.44.12,1.38.34,2.76.49,4.14.06.55.31.89.79,1.15,1.06.56,2.12,1.12,3.15,1.74.54.32.98.24,1.48-.05.92-.54,1.84-1.08,2.8-1.53.75-.35,1.03-.9,1.1-1.67.09-1.07.17-2.15.37-3.2.17-.88.01-1.67-.28-2.48-.75-2.11-1.5-4.22-2.17-6.35-.53-1.7-1.53-3.11-2.67-4.84h0ZM5.98,17.55c1.13-1.03,2.07-1.87,3-2.73.19-.18.45-.37.51-.6.41-1.48.77-2.97,1.24-4.78-2.24.85-4.15,1.57-6.18,2.34.48,1.91.92,3.7,1.44,5.76ZM19.47,11.78c-2.04-.77-3.94-1.48-6.12-2.3.27,1.21.47,2.11.67,3,.23,1.05.47,2.06,1.42,2.76.86.64,1.62,1.42,2.6,2.29.51-2.06.96-3.86,1.43-5.75h0ZM3.17,26.56c.23-.1.37-.13.46-.22.39-.37.72-.81,1.14-1.11,1.38-1.01,1.75-2.31,1.32-3.94-.22-.84-.28-1.71-.45-2.82-1.66,1.17-3.12,2.2-4.63,3.26.76,1.69,1.46,3.26,2.17,4.84h0ZM18.36,18.45c-.23,1.71-.44,3.11-.6,4.52-.03.28.04.67.21.86.85.94,1.75,1.84,2.8,2.92.81-1.81,1.53-3.4,2.26-5.04-1.57-1.1-3.01-2.1-4.67-3.26h0ZM8.32,33.21c-.41-3-2.18-4.92-4.95-5.34-.11,1.81-.22,3.61-.34,5.56,1.9-.08,3.59-.14,5.3-.21h0ZM15.46,33.27h5.36c.2-1.18-.05-4.6-.46-5.58-1.05.57-2.09,1.13-3.11,1.72-.21.12-.41.36-.5.59-.41.98-.78,1.97-1.28,3.27ZM9.42,33.61c.79,1.65,1.95,3.32,2.76,3.93.84-1.29,1.68-2.58,2.5-3.85-1.79-1.54-3.48-1.59-5.26-.08h0ZM13.17,8.69c1.28-.8,2.28-1.43,3.39-2.12-1.25-1.91-2.48-3.66-3.86-5.28-.1.04-.2.09-.31.13.25,2.32.5,4.65.78,7.27h0ZM10.85,8.68c.29-2.66.54-4.98.8-7.41-1.13.77-3.53,4.02-4.01,5.42.98.61,1.97,1.23,3.21,2h0ZM18.8,11.02c.09-.09.18-.18.27-.26-.73-1.24-1.45-2.48-2.24-3.82-1.1.77-2.17,1.24-3.19,2.16,1.88.7,3.52,1.32,5.16,1.93h0ZM10.15,9.18c0-.11.02-.23.03-.34-.96-.6-1.91-1.2-3.01-1.88-.77,1.34-1.49,2.57-2.21,3.81.07.09.14.18.21.26,1.66-.62,3.32-1.23,4.98-1.85ZM3.31,33.95c1.17,1.28,2.21,2.17,3.59,2.72.55-.96,1.17-1.79,1.35-2.94-1.64-.03-3.15,0-4.94.22h0ZM15.61,33.86c.51.99.96,1.88,1.47,2.87,1.38-.66,2.51-1.43,3.58-2.87h-5.04ZM2.45,16.41c-.57,1.51-1.05,2.83-1.26,4.58,1.53-1.07,2.77-1.94,4.13-2.89-.35-.26-.55-.42-.76-.54-.65-.36-1.3-.71-2.11-1.15ZM21.63,16.36c-1.03.58-1.92,1.07-3,1.68,1.46,1.03,2.69,1.97,4.01,2.76.09-.06.17-.13.26-.2-.4-1.34-.8-2.68-1.27-4.24h0ZM8.91,33.91c-.58,1.14-1.04,2.03-1.49,2.91,1.44.92,2.8,1.2,3.93.81-.76-1.16-1.51-2.3-2.44-3.72h0ZM6.4,24.32c-1.02,1-1.85,1.82-2.76,2.71,1.07.77,2.06,1.32,3.35,1.83-.21-1.64-.39-2.99-.59-4.54h0ZM15.1,33.91c-.92,1.41-1.7,2.59-2.58,3.94,1.62.07,2.84-.27,4.12-.95-.51-.98-.96-1.86-1.54-2.99ZM6.58,21.86c.11.03.22.06.33.09.69-2.02,1.38-4.05,2.08-6.07-.09-.06-.18-.12-.26-.18-.77.71-1.57,1.4-2.31,2.14-.18.18-.25.56-.23.84.1,1.06.25,2.11.39,3.17h0ZM15.12,15.58c.33,2.09,1.66,5.7,2.31,6.33.13-1.06.3-2.07.37-3.09.02-.36-.09-.83-.33-1.07-.66-.7-1.42-1.32-2.35-2.16h0ZM17.7,24.51c-.49,1.7-.62,3.22-.36,4.25,1.01-.5,2.05-.92,3.01-1.79-.91-.85-1.74-1.62-2.65-2.46h0ZM23.27,28.18c-.65-.18-1.32-.37-2.19-.62.12,1.79.23,3.34.35,5.05,1.09-1.09,1.72-2.63,1.84-4.43h0ZM2.3,32.51c.1-.02.2-.03.31-.05.1-1.58.21-3.16.33-4.93-.87.26-1.55.47-2.31.7.33,1.65.76,3.06,1.68,4.28ZM23.15,22.97c-.76,1.31-1.47,2.59-1.9,4.08.78.22,1.39.4,2.07.6.48-1.66.15-3.16-.18-4.68ZM1.04,22.95c-.1.02-.2.05-.3.07-.37,1.48-.34,2.97-.2,4.68.84-.27,1.52-.48,2.3-.72-.65-1.46-1.23-2.74-1.81-4.03h0ZM18.63,17.19c.08.05.16.1.24.16.82-.46,1.64-.92,2.5-1.41-.44-1.19-.76-2.25-1.62-3.37-.42,1.74-.77,3.18-1.12,4.62h0ZM5.35,17.46c-.25-1.79-.63-3.24-1.12-4.65-.1,0-.21,0-.31-.01-.42,1.04-.85,2.07-1.29,3.15.92.51,1.68.93,2.73,1.51h0ZM11.76,10.02c.14,0,.28.01.41.02.18-.43.53-.88.5-1.3-.12-1.73-.35-3.46-.54-5.19-.09,0-.17,0-.26,0-.18,1.67-.41,3.34-.52,5.02-.03.47.26.97.41,1.45h0ZM9.02,33.11c.86-.4,1.52-.71,2.33-1.09-1.15-.78-2.12-1.4-3.48-1.83.42,1.07.75,1.92,1.15,2.93ZM16.06,30.43c-.08-.07-.16-.13-.25-.2-1.04.49-2.07.99-3.18,1.8.91.41,1.58.71,2.36,1.06.39-.97.73-1.81,1.07-2.66h0ZM11.11,9.98c-.21.81-.38,1.48-.55,2.14.81-.75.99-1.46.55-2.14ZM12.89,10.03c-.64.97-.52,1.34.56,2.11-.1-.47-.18-.9-.29-1.33-.05-.21-.14-.41-.28-.78h0Z"/>
  </g>
</svg>