<svg xmlns="http://www.w3.org/2000/svg" xmlns:xlink="http://www.w3.org/1999/xlink" width="57.053" height="57.053" viewBox="0 0 57.053 57.053">
  <defs>
    <clipPath id="clip-path">
      <rect id="Rectangle_1345" data-name="Rectangle 1345" width="57.053" height="57.053" transform="translate(0 0)" fill="none"/>
    </clipPath>
  </defs>
  <g id="price-icon" transform="translate(0 0)">
    <g id="Group_2010" data-name="Group 2010" clip-path="url(#clip-path)">
      <path id="Path_1310" data-name="Path 1310" d="M28.527,0a28.533,28.533,0,0,1,11.1,54.81A28.533,28.533,0,0,1,17.423,2.242,28.351,28.351,0,0,1,28.527,0Zm0,56.052A27.526,27.526,0,1,0,1,28.526,27.557,27.557,0,0,0,28.527,56.052Z" fill="#231f20"/>
      <path id="Ellipse_22" data-name="Ellipse 22" d="M23.054-.5a23.56,23.56,0,0,1,9.168,45.257A23.56,23.56,0,0,1,13.886,1.351,23.407,23.407,0,0,1,23.054-.5Zm0,46.108A22.554,22.554,0,1,0,.5,23.054,22.58,22.58,0,0,0,23.054,45.608Z" transform="translate(5.472 5.472)" fill="#231f20"/>
      <path id="Path_1311" data-name="Path 1311" d="M28.576,29.477c-4.163,0-7.55-3.131-7.55-6.98s3.387-6.981,7.55-6.981a7.826,7.826,0,0,1,5.323,2.03.5.5,0,0,1-.677.736,6.829,6.829,0,0,0-4.647-1.766,6.292,6.292,0,0,0-6.55,5.981,6.292,6.292,0,0,0,6.55,5.98.5.5,0,0,1,0,1Z" fill="#231f20"/>
      <path id="Path_1312" data-name="Path 1312" d="M28.526,41.537c-4.136,0-7.5-2.929-7.5-6.53a.5.5,0,0,1,1,0c0,3.049,2.916,5.53,6.5,5.53s6.5-2.481,6.5-5.53-2.916-5.53-6.5-5.53a.5.5,0,0,1,0-1c4.136,0,7.5,2.929,7.5,6.53S32.662,41.537,28.526,41.537Z" fill="#231f20"/>
      <path id="Line_78" data-name="Line 78" d="M0,32.889a.5.5,0,0,1-.5-.5V0A.5.5,0,0,1,0-.5.5.5,0,0,1,.5,0V32.389A.5.5,0,0,1,0,32.889Z" transform="translate(28.526 12.332)" fill="#231f20"/>
    </g>
  </g>
</svg>
