<svg xmlns="http://www.w3.org/2000/svg" xmlns:xlink="http://www.w3.org/1999/xlink" width="58.788" height="58.863" viewBox="0 0 58.788 58.863">
  <defs>
    <clipPath id="clip-path">
      <rect id="Rectangle_1343" data-name="Rectangle 1343" width="58.788" height="58.863" transform="translate(0 0)" fill="none"/>
    </clipPath>
  </defs>
  <g id="quality-icon" transform="translate(0 0)">
    <g id="Group_2006" data-name="Group 2006" clip-path="url(#clip-path)">
      <path id="Path_1298" data-name="Path 1298" d="M29.394,58.863A29.37,29.37,0,0,1,0,29.469a.5.5,0,0,1,.5-.5H58.288a.5.5,0,0,1,.5.5A29.37,29.37,0,0,1,29.394,58.863ZM1,29.969a28.394,28.394,0,0,0,56.779,0Z" fill="#1a1b18"/>
      <path id="Path_1299" data-name="Path 1299" d="M34.869,57.942a.5.5,0,0,1-.32-.884.96.96,0,0,0,.423-.886c-.073-.735-.926-1.749-2.4-2.854A21.908,21.908,0,0,0,30.228,51.8a3.116,3.116,0,0,1-1.986-2.138,3.981,3.981,0,0,1-.137-1.323c-1-3.27-2.615-4.344-3.8-4.668a3.2,3.2,0,0,0-2.941.569,4.69,4.69,0,0,1-3.775.966,4.4,4.4,0,0,1-3.219-1.981c-1.036-1.723-3.895-2.084-7.205-2.5-.374-.047-.761-.1-1.148-.147a.5.5,0,0,1-.08-.017c-2.919-.891-3.938-4-4.06-4.406l-1.6-3.52a.5.5,0,0,1,.911-.413l1.613,3.553a.5.5,0,0,1,.026.072c.008.029.861,2.956,3.362,3.746.369.049.74.1,1.1.141,3.569.45,6.651.839,7.937,2.979a3.413,3.413,0,0,0,2.5,1.506,3.734,3.734,0,0,0,2.955-.711,4.232,4.232,0,0,1,3.884-.8,5.27,5.27,0,0,1,2.547,1.642,9.922,9.922,0,0,1,1.972,3.8.5.5,0,0,1,.016.211,2.369,2.369,0,0,0,1.5,2.518.5.5,0,0,1,.068.03,22.447,22.447,0,0,1,2.5,1.613c1.751,1.312,2.691,2.508,2.8,3.555a1.96,1.96,0,0,1-.778,1.754A.5.5,0,0,1,34.869,57.942Z" fill="#1a1b18"/>
      <path id="Path_1300" data-name="Path 1300" d="M38.53,41.78a.5.5,0,0,1-.5-.45A16.958,16.958,0,0,0,36.852,36.9c-1.208-2.794-2.964-4.256-5.222-4.348a10.068,10.068,0,0,1-3.225.365,6.6,6.6,0,0,1-5.549-3.192.5.5,0,1,1,.855-.519,5.561,5.561,0,0,0,4.717,2.711,9.059,9.059,0,0,0,2.979-.343.5.5,0,0,1,.169-.025c2.688.07,4.834,1.79,6.2,4.975a17.411,17.411,0,0,1,1.028,3.337l2.748-4.509L41.133,29.5a.5.5,0,0,1,1-.072l.433,6.011a.5.5,0,0,1-.072.3l-3.535,5.8A.5.5,0,0,1,38.53,41.78Z" fill="#1a1b18"/>
      <path id="Path_1301" data-name="Path 1301" d="M20.766,19.526a7.575,7.575,0,0,1-3.814-1,11.071,11.071,0,0,1-4.084-4.5,25.662,25.662,0,0,1-2.214-5.936A41.636,41.636,0,0,1,9.5.678a.5.5,0,0,1,1-.047,41.436,41.436,0,0,0,1.132,7.237c.872,3.452,2.589,7.952,5.82,9.793,2.358,1.343,5.269,1.114,8.655-.682a.5.5,0,1,1,.469.883A12.537,12.537,0,0,1,20.766,19.526Z" fill="#1a1b18"/>
      <path id="Path_1302" data-name="Path 1302" d="M26.764,17.341a.5.5,0,0,1-.349-.142L9.648.858A.5.5,0,0,1,10.021,0a41.636,41.636,0,0,1,7.417,1.157,25.662,25.662,0,0,1,5.936,2.214,11.071,11.071,0,0,1,4.5,4.084c1.524,2.675,1.3,5.911-.666,9.619a.5.5,0,0,1-.442.266ZM11.341,1.112l15.285,14.9c1.514-3.131,1.641-5.84.378-8.057C25.16,4.716,20.651,3,17.194,2.127A42.1,42.1,0,0,0,11.341,1.112Z" fill="#1a1b18"/>
      <path id="Line_69" data-name="Line 69" d="M0,9.192l-.051,0A.5.5,0,0,1-.5,8.642L.379-.05A.5.5,0,0,1,.926-.5.5.5,0,0,1,1.373.05L.5,8.742A.5.5,0,0,1,0,9.192Z" transform="translate(22.383 3.88)" fill="#1a1b18"/>
      <path id="Line_70" data-name="Line 70" d="M0,6.01a.5.5,0,0,1-.5-.5V0A.5.5,0,0,1,0-.5.5.5,0,0,1,.5,0V5.51A.5.5,0,0,1,0,6.01Z" transform="translate(16.661 1.485)" fill="#1a1b18"/>
      <path id="Line_71" data-name="Line 71" d="M0,1.376A.5.5,0,0,1-.5.926.5.5,0,0,1-.05.379L8.642-.5a.5.5,0,0,1,.548.447A.5.5,0,0,1,8.742.5L.05,1.373Z" transform="translate(13.512 12.751)" fill="#1a1b18"/>
      <path id="Line_72" data-name="Line 72" d="M5.51.5H0A.5.5,0,0,1-.5,0,.5.5,0,0,1,0-.5H5.51a.5.5,0,0,1,.5.5A.5.5,0,0,1,5.51.5Z" transform="translate(11.118 7.028)" fill="#1a1b18"/>
      <path id="Path_1303" data-name="Path 1303" d="M32.716,21a.5.5,0,0,1-.442-.266c-1.587-2.992-1.765-5.608-.53-7.775a8.935,8.935,0,0,1,3.629-3.3,20.582,20.582,0,0,1,4.761-1.776,33.343,33.343,0,0,1,5.94-.926.5.5,0,1,1,.047,1c-.113.005-10.7.565-13.509,5.5-1.054,1.85-.87,4.141.545,6.81a.5.5,0,0,1-.441.734Z" fill="#1a1b18"/>
      <path id="Path_1304" data-name="Path 1304" d="M37.624,22.625h0a10.135,10.135,0,0,1-4.678-1.34.5.5,0,0,1-.124-.791L45.863,7.113a.5.5,0,0,1,.858.372,32.747,32.747,0,0,1-1.356,7.46,14.919,14.919,0,0,1-2.682,5.215A6.476,6.476,0,0,1,37.624,22.625ZM34.014,20.7a8.589,8.589,0,0,0,3.608.922c5.961,0,7.576-9.245,7.977-12.81Z" fill="#1a1b18"/>
      <path id="Line_73" data-name="Line 73" d="M6.939,1.2l-.051,0L-.05.5A.5.5,0,0,1-.5-.05.5.5,0,0,1,.05-.5L6.988.2a.5.5,0,0,1-.05,1Z" transform="translate(36.586 17.347)" fill="#1a1b18"/>
      <path id="Line_74" data-name="Line 74" d="M4.4.5H0A.5.5,0,0,1-.5,0,.5.5,0,0,1,0-.5H4.4a.5.5,0,0,1,.5.5A.5.5,0,0,1,4.4.5Z" transform="translate(41.037 12.781)" fill="#1a1b18"/>
      <path id="Line_75" data-name="Line 75" d="M.7,7.438a.5.5,0,0,1-.5-.45L-.5.05A.5.5,0,0,1-.05-.5.5.5,0,0,1,.5-.05l.7,6.938a.5.5,0,0,1-.447.548Z" transform="translate(35.744 10.267)" fill="#1a1b18"/>
      <path id="Line_76" data-name="Line 76" d="M0,4.9a.5.5,0,0,1-.5-.5V0A.5.5,0,0,1,0-.5.5.5,0,0,1,.5,0V4.4A.5.5,0,0,1,0,4.9Z" transform="translate(41.011 8.357)" fill="#1a1b18"/>
      <path id="Path_1305" data-name="Path 1305" d="M29.619,29.969a.5.5,0,0,1-.493-.586c.016-.094,1.383-8.332-2.588-11.612A.5.5,0,0,1,27.174,17a8,8,0,0,1,2.377,3.588,15.274,15.274,0,0,1,.778,4.125,22.972,22.972,0,0,1-.219,4.841A.5.5,0,0,1,29.619,29.969Z" fill="#1a1b18"/>
      <path id="Line_77" data-name="Line 77" d="M0,2.987a.5.5,0,0,1-.354-.146.5.5,0,0,1,0-.707L2.133-.354a.5.5,0,0,1,.707,0,.5.5,0,0,1,0,.707L.354,2.841A.5.5,0,0,1,0,2.987Z" transform="translate(29.948 21.186)" fill="#1a1b18"/>
    </g>
  </g>
</svg>
