<svg id="recycle-icon" xmlns="http://www.w3.org/2000/svg" xmlns:xlink="http://www.w3.org/1999/xlink" width="56.97" height="53.761" viewBox="0 0 56.97 53.761">
  <defs>
    <clipPath id="clip-path">
      <rect id="Rectangle_1340" data-name="Rectangle 1340" width="56.97" height="53.761" transform="translate(0 0)" fill="none"/>
    </clipPath>
  </defs>
  <g id="Group_2000" data-name="Group 2000">
    <g id="Group_1999" data-name="Group 1999" clip-path="url(#clip-path)">
      <path id="Path_1292" data-name="Path 1292" d="M24.989,49.587H.5a.5.5,0,0,1-.431-.754L12.4,27.937a.5.5,0,1,1,.861.508L1.375,48.587H24.989a.5.5,0,1,1,0,1Z" fill="#1a1b18"/>
    </g>
  </g>
  <path id="Path_1293" data-name="Path 1293" d="M14.673,33.123l-.978.215-1.054-4.816-4.727,1.4-.284-.96,5.758-1.708Z" fill="#1a1b18"/>
  <g id="Group_2002" data-name="Group 2002">
    <g id="Group_2001" data-name="Group 2001" clip-path="url(#clip-path)">
      <path id="Path_1294" data-name="Path 1294" d="M32.206,50.212a.5.5,0,0,1-.006-1l23.388-.28L43.342,28.743a.5.5,0,1,1,.855-.519L56.9,49.163a.5.5,0,0,1-.422.759l-24.264.29Z" fill="#1a1b18"/>
    </g>
  </g>
  <path id="Path_1295" data-name="Path 1295" d="M31.122,49.724l4.446,4.037.673-.74L32.59,49.707l3.571-3.4-.69-.725Z" fill="#1a1b18"/>
  <g id="Group_2004" data-name="Group 2004">
    <g id="Group_2003" data-name="Group 2003" clip-path="url(#clip-path)">
      <path id="Path_1296" data-name="Path 1296" d="M17.541,20.1a.5.5,0,0,1-.435-.746L27.9.254a.5.5,0,0,1,.868,0L39.574,18.983a.5.5,0,0,1-.866.5L28.338,1.509,17.977,19.848A.5.5,0,0,1,17.541,20.1Z" fill="#1a1b18"/>
    </g>
  </g>
  <path id="Path_1297" data-name="Path 1297" d="M33.942,18.407l.294-.957L38.948,18.9l1.1-4.806.975.225-1.345,5.853Z" fill="#1a1b18"/>
</svg>
