<svg xmlns="http://www.w3.org/2000/svg" xmlns:xlink="http://www.w3.org/1999/xlink" width="59.211" height="58.824" viewBox="0 0 59.211 58.824">
  <defs>
    <clipPath id="clip-path">
      <rect id="Rectangle_1339" data-name="Rectangle 1339" width="59.211" height="58.824" transform="translate(0 0)" fill="none"/>
    </clipPath>
  </defs>
  <g id="sustainability-icon" transform="translate(0 0)">
    <g id="Group_1997" data-name="Group 1997" clip-path="url(#clip-path)">
      <path id="Ellipse_21" data-name="Ellipse 21" d="M28.863-.5a29.371,29.371,0,0,1,11.43,56.418A29.37,29.37,0,0,1,17.433,1.808,29.18,29.18,0,0,1,28.863-.5Zm0,57.726A28.363,28.363,0,1,0,.5,28.863,28.4,28.4,0,0,0,28.863,57.226Z" transform="translate(0.749 0.598)" fill="#231f20"/>
      <path id="Path_1285" data-name="Path 1285" d="M38.178,10.583l-8.4-9.105-8.328,9.1L18.309,3l.924-.383,2.541,6.122,8-8.744,8.057,8.737,2.421-6.1.929.369Z" fill="#231f20"/>
      <path id="Path_1286" data-name="Path 1286" d="M38.249,49.456l-.922-.386L49.083,21l.255-11.357-11.222.509L18.634,18.114,10.175,38.426,0,29.718,9.061,21.28,3.012,18.849l.373-.928,6.063,2.436-.46-11.9L22.346,9.2l-3.17,7.613L37.9,9.164,50.362,8.6l-.283,12.617ZM1.5,29.687,9.78,36.773l7.548-18.126-7.077,2.891ZM10.03,9.518l.42,10.858,7.421-3.031,3.009-7.225Z" fill="#231f20"/>
      <path id="Path_1287" data-name="Path 1287" d="M19.306,56.422l-.936-.352,2.557-6.8L9.515,21.3l.926-.378L22,49.255Z" fill="#231f20"/>
      <path id="Path_1288" data-name="Path 1288" d="M29.786,58.751l-8.522-8.973-12.346.866.527-12.271L3.176,41.062l-.394-.919,7.731-3.316L9.965,49.567l11.7-.82,8.108,8.537,8.163-8.924,3.242,7.348-.915.4-2.624-5.946Z" fill="#231f20"/>
      <path id="Line_67" data-name="Line 67" d="M1.128,1.034-.2.459.2-.459,1.526.116Z" transform="translate(9.978 37.599)" fill="#231f20"/>
      <path id="Path_1289" data-name="Path 1289" d="M50.641,50.294l-12.964-.536L29.663,46.4l-8.007,3.321-.383-.924,7.091-2.941L10.982,38.581l.386-.922,18.3,7.66,20.384-8.456ZM37.9,48.766l11.7.484-.482-10.915L30.964,45.863Z" fill="#231f20"/>
      <path id="Path_1290" data-name="Path 1290" d="M56.234,40.931,49.2,37.981,37.545,9.851l.924-.383,11.5,27.75,6.657,2.79Z" fill="#231f20"/>
      <path id="Path_1291" data-name="Path 1291" d="M49.919,37.968l-.675-.738,8.5-7.774-9.057-8.505L56.022,17.8l.395.919L50.48,21.267l8.731,8.2Z" fill="#231f20"/>
      <path id="Line_68" data-name="Line 68" d="M27.779,11.913-.189.463.189-.463l27.968,11.45Z" transform="translate(21.613 9.66)" fill="#231f20"/>
    </g>
  </g>
</svg>
