<svg width="26" height="40" viewBox="0 0 26 40" fill="none" xmlns="http://www.w3.org/2000/svg">
<g clip-path="url(#clip0_25024_17407)">
<path d="M12.9995 40H4.6222L0 35.4616V4.63694L4.72254 0H12.9995V0.371773H4.87873L0.378636 4.7903V35.3082L4.77934 39.6282H12.9995V40Z" fill="black"/>
<path d="M6.11696 7.57207L0.11084 4.88415L0.267974 4.54584L6.05164 7.13338L7.14022 6.19837L4.62608 0.258367L4.97537 0.115234L7.59458 6.30247L6.11696 7.57207Z" fill="black"/>
<path d="M4.87234 39.8915L4.52873 39.7353L7.13942 34.2052L6.04233 33.1624L0.263391 35.5557L0.115723 35.2127L6.12562 32.7246L7.59568 34.1225L4.87234 39.8915Z" fill="black"/>
<path d="M12.9994 36.5639H6.26917L3.55908 33.9633L3.58937 6.243L6.23793 3.58203H12.9994V3.9538H6.39696L3.96706 6.39449L3.93772 33.8072L6.42441 36.1921H12.9994V36.5639Z" fill="black"/>
<path d="M6.27317 7.35156H5.89453V32.9435H6.27317V7.35156Z" fill="black"/>
<path d="M13.0003 33.9785H7.36719V34.3503H13.0003V33.9785Z" fill="black"/>
<path d="M13.0003 6.06445H7.36719V6.43623H13.0003V6.06445Z" fill="black"/>
<path d="M21.3778 40H12.9995V39.6282H21.2206L25.6213 35.3082V4.7903L21.1213 0.371773H12.9995V0H21.2774L26 4.63694V35.4616L21.3778 40Z" fill="black"/>
<path d="M19.8829 7.57207L18.4053 6.30247L21.0245 0.115234L21.3738 0.258367L18.8596 6.19837L19.9482 7.13338L25.7319 4.54584L25.889 4.88415L19.8829 7.57207Z" fill="black"/>
<path d="M21.1281 39.8915L18.4048 34.1225L19.8748 32.7246L25.8847 35.2127L25.7371 35.5557L19.9581 33.1624L18.861 34.2052L21.4717 39.7353L21.1281 39.8915Z" fill="black"/>
<path d="M19.7307 36.5639H12.9995V36.1921H19.5764L22.0622 33.8072L22.0328 6.39449L19.6029 3.9538H12.9995V3.58203H19.7629L22.4105 6.243L22.4408 33.9633L19.7307 36.5639Z" fill="black"/>
<path d="M20.1057 7.35156H19.7271V32.9435H20.1057V7.35156Z" fill="black"/>
<path d="M18.6327 33.9785H12.9995V34.3503H18.6327V33.9785Z" fill="black"/>
<path d="M18.6327 6.06445H12.9995V6.43623H18.6327V6.06445Z" fill="black"/>
</g>
<defs>
<clipPath id="clip0_25024_17407">
<rect width="26" height="40" fill="white"/>
</clipPath>
</defs>
</svg>
